<svg width="1024" height="1024" viewBox="0 0 1024 1024" fill="none" xmlns="http://www.w3.org/2000/svg">
<rect width="1024" height="1024" fill="url(#paint0_linear_35_879)"/>
<path d="M553.718 693.442C580.306 670.656 623.339 662.81 668.863 672.443C747.702 689.098 843.599 702.183 875.163 706.297C878.059 717.969 881.606 727.798 885.478 736.117L616.801 716.042C602.988 715.017 591.38 724.239 588.839 737.411C588.762 737.768 581.215 773.072 520.815 773.072C520.18 773.073 519.589 773.221 518.97 773.263C518.351 773.218 517.76 773.073 517.124 773.072C459.434 773.072 449.904 740.555 449.114 737.397C446.573 724.211 434.547 715.049 421.152 716.029L156.33 735.846C160.156 727.582 163.65 717.859 166.516 706.32C198.085 702.206 293.983 689.123 372.818 672.467C418.337 662.831 461.383 670.681 487.98 693.467C501.636 705.191 506.067 716.782 505.72 723.15C505.72 723.259 505.765 723.348 505.765 723.457C505.779 723.908 505.706 724.373 505.736 724.829C505.781 725.524 506.112 726.115 506.255 726.779C506.462 727.873 506.647 728.907 507.067 729.909C507.429 730.735 507.933 731.43 508.432 732.169C509 733.043 509.564 733.897 510.286 734.619C510.958 735.269 511.726 735.773 512.493 736.305C513.3 736.851 514.067 737.4 514.975 737.781C515.927 738.192 516.933 738.357 517.958 738.562C518.653 738.696 519.258 739.035 519.983 739.08C520.272 739.097 520.53 738.962 520.818 738.962C521.121 738.962 521.381 739.097 521.684 739.08C522.496 739.035 523.16 738.669 523.938 738.489C524.829 738.299 525.703 738.165 526.538 737.812C527.611 737.383 528.533 736.748 529.454 736.084C530.076 735.628 530.74 735.227 531.286 734.681C532.09 733.9 532.712 732.984 533.331 732.024C533.782 731.329 534.247 730.682 534.6 729.912C535.037 728.91 535.221 727.859 535.429 726.75C535.569 726.087 535.902 725.513 535.947 724.819C535.978 724.36 535.903 723.894 535.917 723.447C535.917 723.335 535.961 723.247 535.961 723.135C535.614 716.756 540.054 705.157 553.718 693.442Z" fill="#D9D9D9"/>
<path d="M961.473 741.841L922.327 738.901C915.279 729.982 907.391 714.986 902.486 689.795L900.374 679.006L889.472 677.664C888.276 677.516 769.198 662.773 675.104 642.871C596.254 626.179 550.163 656.629 534.003 670.515C528.967 674.819 524.597 679.406 520.827 684.122C517.059 679.403 512.686 674.836 507.664 670.529C491.51 656.662 445.408 626.235 366.549 642.885C272.472 662.787 153.381 677.547 152.184 677.678L141.282 679.023L139.193 689.795C134.333 714.712 126.576 729.643 119.59 738.623L76.494 741.841C61.9279 742.919 50.9754 755.635 52.0762 770.208C53.1687 784.769 65.8888 795.668 80.4521 794.603L405.939 770.255C420.732 796.393 454.243 826 517.166 826C517.801 826 518.392 825.866 519.011 825.824C519.631 825.868 520.222 826 520.857 826C583.783 826 617.288 796.393 632.086 770.255L957.554 794.603C972.204 795.684 984.851 784.769 985.93 770.208C986.983 755.635 976.05 742.919 961.473 741.841ZM616.8 716.042C602.988 715.017 591.38 724.238 588.839 737.411C588.766 737.75 581.231 773.072 520.815 773.072C520.18 773.072 519.589 773.221 518.969 773.263C518.35 773.218 517.759 773.072 517.123 773.072C459.433 773.072 449.904 740.556 449.114 737.397C446.573 724.21 434.548 715.048 421.153 716.028L156.33 735.846C160.157 727.582 163.65 717.859 166.515 706.32C198.084 702.206 293.982 689.123 372.818 672.467C418.337 662.831 461.383 670.681 487.98 693.466C501.636 705.191 506.067 716.781 505.72 723.149C505.72 723.258 505.765 723.348 505.765 723.457C505.779 723.908 505.706 724.373 505.737 724.829C505.782 725.524 506.112 726.115 506.255 726.778C506.462 727.873 506.647 728.906 507.067 729.909C507.429 730.735 507.933 731.429 508.431 732.169C509 733.042 509.563 733.897 510.286 734.619C510.958 735.269 511.726 735.773 512.493 736.305C513.3 736.851 514.067 737.4 514.975 737.781C515.927 738.192 516.933 738.357 517.958 738.562C518.653 738.696 519.258 739.035 519.984 739.08C520.272 739.097 520.53 738.962 520.818 738.962C521.121 738.962 521.381 739.097 521.684 739.08C522.496 739.035 523.16 738.668 523.939 738.489C524.83 738.299 525.703 738.164 526.538 737.811C527.611 737.383 528.533 736.747 529.454 736.084C530.076 735.627 530.74 735.227 531.286 734.681C532.09 733.899 532.712 732.984 533.331 732.023C533.782 731.329 534.247 730.682 534.6 729.912C535.037 728.909 535.222 727.859 535.429 726.75C535.569 726.087 535.903 725.513 535.947 724.818C535.978 724.359 535.903 723.894 535.917 723.446C535.917 723.334 535.961 723.247 535.961 723.135C535.614 716.756 540.054 705.157 553.718 693.441C580.307 670.655 623.338 662.809 668.863 672.442C747.702 689.098 843.6 702.184 875.163 706.297C878.06 717.969 881.606 727.798 885.477 736.117L616.8 716.042Z" fill="#2D271A"/>
<path d="M512.891 82C513.901 86.3122 515.673 85.1559 519.112 90.0557C519.659 90.8347 519.695 90.702 526.898 99.0518C528.481 100.886 529.002 100.444 529.91 102.652C530.025 102.926 533.946 106.157 537.27 110.982C537.345 111.092 537.389 111.138 537.59 111.273L538.854 112.101L539.324 112.482C539.686 112.787 539.781 112.938 540.16 113.646C540.559 114.367 552.57 127.8 555.976 132.121C557.545 134.113 558.581 133.895 557.813 136.296C557.543 137.144 558.022 137.201 556.624 147.358C555.662 154.343 555.965 154.298 555.784 161.272C555.77 161.797 555.182 161.704 554.788 167.752C554.705 169.028 553.926 168.859 552.214 183.521C551.698 187.937 552.994 190.936 551.278 195.61C550.331 198.189 551.599 198.384 550.409 202.109C549.975 203.471 549.264 213.124 549.192 214.084C548.918 217.812 548.385 217.664 548.332 221.485C548.316 222.612 548.203 230.881 546.697 235.474C546.263 236.8 545.544 246.485 545.473 247.445C545.196 251.167 544.663 251.064 544.622 254.849C544.495 266.814 541.042 279.047 540.923 287.286C540.743 299.773 537.339 311.282 537.214 320.649C537.083 330.505 535.068 332.764 539.795 333.186C550.692 334.16 552.009 335.352 552.271 332.808C552.39 331.663 553.087 331.821 555.33 318.755C556.693 310.812 555.932 310.757 558.017 302.995C558.753 300.249 561.221 281.763 562.968 275.239C564.365 270.019 563.038 269.782 566.924 254.008C567.251 252.682 567.159 246.236 568.486 241.862C571.926 230.533 569.801 230.144 572.852 218.662C574.805 211.306 573.755 208.316 578.044 190.987C579.309 185.875 577.952 185.731 579.341 180.667C583.748 164.592 581.207 151.248 587.151 158.356C587.456 158.721 590.338 162.165 590.84 162.986C591.608 164.24 592.514 163.461 592.828 164.849C593.053 165.84 606.063 182.096 606.689 182.319C607.089 182.459 606.586 182.837 610.125 186.334C614.153 190.313 607.1 205.903 605.751 214.097C605.047 218.375 604.204 218.149 603.965 222.438C603.778 225.791 600.922 226.941 600.22 236.34C600.048 238.638 596.604 246.194 596.556 248.38C596.364 257.017 593.427 256.453 592.824 265.071C592.565 268.794 589.789 269.528 589.106 278.971C589.045 279.816 588.466 279.648 586.067 289.116C581.361 307.695 581.667 307.71 578.91 316.062C577.085 321.59 578.627 321.945 576.228 327.251C573.72 332.796 574.842 335.054 573.739 338.199C572.614 341.407 581.972 340.623 597.389 348.085C601.357 350.006 601.753 349.034 605.414 351.49C606.104 351.954 606.102 351.824 614.709 356.133C623.268 360.418 621.581 353.516 625.332 349.647C627.194 347.727 628.25 343.583 632.71 337.48C634.157 335.5 638.361 327.89 638.829 327.043C639.472 325.88 644.264 318.716 644.745 317.998C646.254 315.743 645.667 315.468 647.277 313.23C649.183 310.582 676.96 263.28 681.117 257.318C682.895 254.769 682.124 254.38 684.22 251.968C684.721 251.392 684.345 251.166 689.24 243.86C690.756 241.598 690.127 241.302 691.756 239.087C693.765 236.354 693.096 235.99 695.343 233.434C696.651 231.944 698.178 226.164 700.982 225.912C702.028 225.819 712.137 224.912 713.993 224.245C715.434 223.726 717.929 224.716 721.396 223.286C722.912 222.661 729.695 223.808 735.32 222.427C735.901 222.284 735.891 222.732 742.7 221.193C746.044 220.437 743.289 222.692 741.151 226.276C736.858 233.475 733.805 235.156 729.787 242.813C729.47 243.417 727.006 244.546 726.242 247.508C726.067 248.189 725.489 247.822 721.17 254.688C720.616 255.57 720.181 255.097 719.768 255.981C718.07 259.613 717.196 258.961 715.202 262.417C714.935 262.879 714.818 262.688 711.484 267.967C711.071 268.98 711.091 268.925 710.395 269.762C709.973 270.172 708.308 271.151 707.701 273.456C707.678 273.543 705.123 276.096 702.986 279.965C702.754 280.386 701.7 280.839 700.427 282.811C700.157 284.631 699.973 284.554 698.481 285.689C697.95 286.226 694.597 291.249 694.269 291.741C693.298 293.194 693.166 293.009 681.586 309.533C681.433 309.751 680.477 311.114 679.531 312.146C679.098 312.618 679.229 312.709 674.806 318.616C673.198 320.763 673.75 321.121 671.623 322.772C671.158 323.134 671.471 323.285 667.393 328.811C665.002 332.049 665.382 332.217 663.06 335.487C662.365 336.467 662.455 336.499 662.382 336.569C661.867 337.065 661.696 336.837 661.375 337.559C661.359 337.582 659.789 339.03 659.682 339.366C658.588 342.808 652.127 349.865 650.144 353.16C647.603 357.382 644.515 361.067 643.972 361.715C637.247 369.74 639.32 370.905 640.044 371.311C649.225 376.471 649.649 381.314 653.356 376.858C655.943 373.748 731.581 278.753 737.051 272.35C744.565 263.555 744.798 262.5 745.029 261.443C745.069 261.307 750.523 255.825 751.706 253.735C753.834 249.975 754.833 250.786 757.11 247.122C758.48 244.919 759.304 245.425 759.859 242.911C759.979 242.371 760.408 242.793 764.557 237.837C767.516 234.301 770.898 229.608 771.427 228.874C772.141 227.883 772.028 227.855 772.103 227.785C772.636 227.29 772.811 227.513 773.112 226.796C775.754 220.495 793.957 224.634 806.658 222.268C807.681 222.077 807.697 222.471 819.63 221.319C822.414 221.051 829.311 221.715 832.62 220.542C835.326 219.583 839.578 221.459 845.582 219.554C848.614 218.591 847.301 222.081 847.21 222.323C846.528 224.136 847.214 224.237 845.174 246.455C844.923 249.195 845.584 249.211 843.96 280.812C843.884 282.302 843.307 282.123 843.169 283.597C842.647 289.17 844.356 290.133 839.864 293.499C837.647 295.16 838.196 295.835 835.586 296.876C834.955 297.127 835.274 297.546 829.079 302.334C828.371 302.881 820.703 308.807 820.283 309.219C818.743 310.728 819.011 310.981 817.047 311.702C814.907 312.489 816.013 313.778 813.947 314.818C809.751 316.933 810.298 317.566 806.514 320.385C802.237 323.573 802.093 323.713 801.751 324.051C800.224 325.557 800.487 325.804 798.512 326.529C796.37 327.317 797.478 328.608 795.413 329.648C792.133 331.301 750.679 365.27 742.555 371.345C740.405 372.953 737.536 375.81 728.654 382.467C728.02 382.941 728.15 383.071 721.138 388.899C719.032 390.65 718.8 390.196 716.861 392.093C716.121 392.817 710.669 396.887 710.121 397.297C707.708 399.098 707.893 399.215 705.486 401.001C705.105 401.284 705.246 401.388 700.853 404.709C696.112 408.293 696.396 408.538 691.588 412.13C691.373 412.29 690.241 413.137 689.09 414.346C685.398 414.902 688.05 416.275 688.49 416.735C691.31 420.482 691.383 420.308 694.038 424.121C698.893 431.094 701.637 424.565 704.883 422.864C707.314 421.59 722.313 411.097 724.106 409.513C725.998 407.841 731.302 405.614 733.738 402.478C734.578 401.397 738.081 400.971 738.851 399.153C739.314 398.06 743.041 397.231 744.811 394.946C746.003 393.406 746.322 393.906 747.499 393.193C747.923 392.937 751.23 390.934 752.627 389.752C757.365 385.742 767.386 379.913 770.444 377.078C773.248 374.479 775.169 374.966 775.921 373.204C776.189 372.579 780.155 370.581 780.542 370.386C782.68 369.309 781.835 368.057 784.271 367.583C785.113 367.419 785.513 366.003 790.749 362.984C791.628 362.477 797.436 357.914 802.795 354.64C809.547 350.514 808.822 349.624 809.444 349.353C811.372 348.512 811.29 348.511 812.994 347.257C813.941 346.561 821.287 341.155 825.042 338.89C830.77 335.433 830.242 334.772 830.765 334.533C835.376 332.428 834.816 331.608 835.229 331.475C836.333 331.116 842.76 326.922 844.003 325.554C848.158 320.98 846.818 326.899 846.762 327.147C844.235 338.302 845.019 343.844 844.91 347.549C844.864 349.122 844.027 349.003 842.091 367.02C841.824 369.501 838.436 370.249 835.238 372.27C826.495 377.796 826.292 377.341 821.658 380.238C814.987 384.41 809.753 387.126 808.691 387.678C808.365 387.847 805.496 389.335 804.679 389.884C792.243 398.229 791.805 397.454 790.753 398.215C785.228 402.213 779.143 404.65 777.298 406.323C775.519 407.937 775.125 407.09 773.169 408.418C764.858 414.057 764.532 413.483 763.894 414.072C762.046 415.776 761.297 414.534 759.622 416.334C756.967 419.187 755.632 418.361 752.754 420.459C750.535 422.077 750.474 421.863 748.146 423.239C724.295 437.346 724.439 437.595 724.262 437.627C720.084 438.392 720.864 439.98 716.929 441.451C714.087 442.513 714.835 443.831 710.454 445.176C707.187 446.179 710.835 450.048 711.204 451.319C712.667 456.366 714.047 455.726 714.909 458.734C715.783 461.782 716.449 461.403 717.729 464.273C722.186 474.263 726.338 488.126 726.97 490.238C729.07 497.251 732.899 490.249 741.781 489.997C747.433 489.837 750.354 486.462 756.609 486.293C762.276 486.139 765.173 482.743 771.438 482.585C775.656 482.478 782.844 478.961 784.395 478.874C794.836 478.291 794.21 475.444 799.222 475.167C809.601 474.593 808.969 471.755 814.049 471.466C824.325 470.881 823.69 468.084 828.877 467.765C839.646 467.102 839.052 464.337 843.704 464.057C855.453 463.349 854.878 460.711 859.465 460.366C869.062 459.646 868.497 456.576 878.05 456.561C882.08 456.553 880.779 459.485 884.618 460.344C886.013 460.656 885.22 461.582 886.478 462.336C886.755 462.502 888.632 463.629 889.807 464.61C900.613 473.643 900.585 473.661 901.972 474.723C904.36 476.551 903.928 476.97 906.6 478.478C908.008 479.273 907.449 479.83 908.817 480.685C916.578 485.528 907.377 484.966 898.449 486.704C878.768 490.536 878.574 489.431 872.478 491.178C869.293 492.091 848.917 494.407 842.85 496.072C835.44 498.106 834.894 496.117 822.436 499.527C818.729 500.542 811.773 500.542 797.437 503.493C788.665 505.298 788.517 504.041 779.83 506.272C771.134 508.507 766.069 508.06 752.025 510.911C744.624 512.413 744.484 511.341 737.161 513.39C735.393 513.884 733.066 512.764 733.442 515.263C734.267 520.736 733.742 530.863 737.22 530.381C755.003 527.909 755.086 528.396 756.548 527.852C761.571 525.983 764.403 527.505 769.562 526.906C784.214 525.205 784.056 524.385 785.332 524.312C791.434 523.963 791.288 523.345 791.812 523.333C798.808 523.164 798.766 523.458 805.725 522.501C817.685 520.855 817.648 520.661 818.695 520.602C824.791 520.253 824.651 519.638 825.176 519.626C832.149 519.461 832.107 519.754 839.087 518.793C851.046 517.146 851.01 516.968 852.058 516.904C858.134 516.535 858.014 515.947 858.538 515.933C865.549 515.744 865.502 516.036 872.449 515.079C884.408 513.43 884.376 513.261 885.422 513.198C891.501 512.831 891.379 512.242 891.902 512.228C898.91 512.039 898.865 512.322 905.812 511.363C917.769 509.716 917.738 509.552 918.785 509.489C931.215 508.739 931.898 506.7 935.878 510.208C937.943 512.028 938.207 511.515 940.263 513.272C940.925 514.113 940.91 514.042 941.309 515.053C943.955 517.678 944.26 517.141 944.437 517.397C945.318 518.686 945.585 518.944 946.447 519.358L947.554 519.87L948.009 520.312C948.354 520.657 948.426 520.805 948.731 521.556C949.638 522.724 955.642 527.25 956.557 528.407C959.004 531.508 960.827 531.828 962.092 533.141C965.441 536.614 965.258 536.776 965.583 537.039C975.927 545.404 975.669 545.691 976.594 546.383C977.531 546.881 977.477 546.871 978.14 547.686C980.462 551.16 985.893 554.104 986 554.184V557.891C984.241 558.307 984.204 558.225 984.099 558.341C980.577 562.228 980.182 561.708 976.357 565.396C968.499 572.972 968.272 572.731 967.686 573.476C966.216 575.346 965.471 574.372 963.969 576.242C960.258 580.858 958.838 579.426 955.9 583.854C955.241 584.664 955.295 584.654 954.354 585.158C952.854 585.991 948.919 590.249 948.564 590.43C945.196 592.133 934.205 603.681 932.712 603.304C924.41 601.205 901.78 600.144 900.271 599.607C894.719 597.631 876.382 597.117 874.295 597.059C872.795 597.017 873.069 596.241 871.52 596.18C870.284 596.131 869.046 596.171 867.812 596.095C866.333 596.004 866.555 595.385 865.027 595.297C855.37 594.739 853.986 593.423 846.516 593.334C840.432 593.261 840.538 592.75 834.45 592.393C832.96 592.305 833.188 591.67 831.664 591.582C830.7 591.525 822.787 591.067 819.658 590.294C814.265 588.962 809.023 590.029 807.585 589.442C803.643 587.833 803.016 589.163 801.108 588.485C797.537 587.217 797.361 588.485 793.703 587.531C786.966 585.773 774.602 585.892 774.222 585.734C770.359 584.134 769.588 585.452 767.743 584.787C764.188 583.505 764.001 584.816 760.336 583.837C753.693 582.063 741.184 582.181 740.854 582.043C739.038 581.282 739.045 581.333 737.063 581.527C733.697 581.856 733.748 596.579 733.814 596.693C734.289 597.492 752.272 601.181 754.789 601.217C759.622 601.284 759.525 601.652 764.144 602.887C778.411 606.697 778.641 604.632 779.812 605.113C782.526 606.227 786.303 606.4 788.134 607.021C788.334 607.088 817.063 612.32 817.809 612.337C825.902 612.513 825.587 614.103 833.579 615.16C835.067 615.357 849.899 617.318 852.091 618.111C859.184 620.68 862.807 619.331 864.163 619.9C868.264 621.624 876.533 622.573 877.107 622.762C882.059 624.391 883.697 622.867 885.474 623.619C892.302 626.512 903.362 627.082 904.942 627.163C906.439 627.24 906.17 627.951 907.722 628.04C917.512 628.602 907.858 632.292 904.679 636.51C903.045 638.676 902.185 637.769 901.311 638.636C896.752 643.153 888.601 648.721 887.011 650.266C883.05 654.113 882.717 653.717 882.412 654.086C880.137 656.845 875.048 656.84 873.386 656.165C864.369 652.508 862.082 653.332 850.243 649.606C846.833 648.533 842.683 648.113 841.886 647.798C831.906 643.848 831.609 645.376 830.759 645.033C817.975 639.868 815.876 642.107 812.374 640.062C807.156 637.017 803.309 638.184 802.019 637.646C790.653 632.903 789.541 634.495 788.124 633.921C778.494 630.016 777.585 631.216 771.452 629.261C759.073 625.314 758.539 626.314 756.624 625.556C746.644 621.606 746.348 623.133 745.497 622.791C733.466 617.929 731.899 619.662 730.664 619.099C727.67 617.734 728.043 619.788 725.509 627.52C722.213 637.574 722.516 637.595 722.05 638.379C717.995 645.197 718.933 646.776 718.376 647.655C717.545 648.966 716.875 650.076 716.329 651.017C702.356 648.423 688.477 645.7 675.104 642.871C596.254 626.179 550.163 656.629 534.003 670.516C528.967 674.82 524.596 679.407 520.826 684.122C517.059 679.404 512.687 674.836 507.664 670.529C491.51 656.662 445.408 626.235 366.55 642.885C347.763 646.859 327.978 650.628 308.334 654.116C308.062 653.567 307.763 652.962 307.438 652.293C293.357 623.374 297.604 618.61 293.186 619.703C289.16 620.699 286.144 622.838 281.221 623.004C275.621 623.192 272.696 626.502 266.392 626.707C260.762 626.891 257.876 630.225 251.563 630.416C245.984 630.584 242.99 633.939 236.736 634.124C231.109 634.29 228.131 637.656 221.907 637.83C216.147 637.991 213.356 641.389 207.079 641.536C201.452 641.668 198.505 645.111 192.251 645.246C185.785 645.386 185.125 648.782 176.502 648.969C172.758 649.05 168.448 652.576 162.594 652.659C158.827 652.713 144.497 659.415 141.355 655.103C139.199 652.141 138.618 652.797 135.986 650.263C134.546 648.876 130.773 646.023 130.307 645.671C117.237 635.785 115.275 632.98 114.189 632.304C104.292 626.134 120.197 628.415 132.919 624.614C135.84 623.742 135.872 624.038 144.016 623.373C149.024 622.964 155.139 621.177 156.085 620.899C161.063 619.444 171.265 619.754 182.017 616.219C183.369 615.774 189.059 616.945 200.568 613.482C202.2 612.992 218.755 611.617 227.428 608.804C228.938 608.314 232.733 609.411 241.354 607.023C245.327 605.924 265.297 603.815 272.846 601.407C276.214 600.333 276.526 602.272 285.84 599.611C287.567 599.117 289.943 600.277 289.558 597.739C287.626 585.011 289.517 581.632 284.9 582.887C283.902 583.157 274.484 583.851 271.938 584.777C270.054 585.463 269.382 584.107 265.463 585.74C265.093 585.894 251.948 585.755 245.055 587.538C242.701 588.147 242.46 587.088 238.575 588.491C237.533 588.866 216.66 590.276 213.587 590.713C197.984 592.93 198.037 593.249 192.241 593.333C183.347 593.462 183.536 594.786 174.655 595.281C173.1 595.368 173.349 596.04 171.868 596.117C165.809 596.433 165.9 597.091 159.803 597.036C153.276 596.978 147.887 598.563 141.289 598.984C137.932 599.199 138.085 599.753 134.798 599.882C133.173 599.945 133.398 600.818 131.078 600.812C119.363 600.781 119.54 602.027 107.927 602.701C106.399 602.79 106.622 603.415 105.144 603.506C97.8315 603.958 88.42 606.472 85.5664 601.55C85.1902 600.902 83.1316 600.063 82.7402 599.727C82.0832 598.896 82.0964 598.966 81.6943 597.946C79.7648 596.025 79.4463 596.446 77.9385 594.287C76.5679 592.325 75.4435 593.597 74.2656 591.445C73.8143 590.62 73.2688 591.164 65.5596 583.541C64.963 582.951 64.7758 583.287 57.7637 576.518C53.6852 572.579 53.3939 573.04 49.4219 569.103C49.2001 568.883 48.4399 568.129 46.4072 566.621C45.4833 566.131 45.5312 566.147 44.8584 565.318C43.1856 562.79 39.8773 560.567 39.1387 560.023C38.4251 559.931 37.7126 559.837 37 559.744V555.11C40.1638 554.375 39.696 553.66 41.9922 551.299C42.716 550.549 42.6739 550.573 43.6201 550.075C46.5669 547.839 50.9043 543.8 51.5166 543.229C55.3237 539.684 55.3428 539.734 55.7803 539.172C57.2221 537.315 57.9491 538.228 59.4336 536.372C59.8673 535.355 59.8728 535.444 60.6133 534.693C61.204 534.35 65.1952 532.028 67.0996 529.147C67.7641 528.323 67.715 528.338 68.6445 527.839C68.6781 527.812 76.8309 520.953 78.5332 519.264C79.4544 518.349 87.5556 511.96 88.3457 510.525C89.4254 508.564 90.1916 511.537 116.271 512.223C116.796 512.237 116.698 512.824 122.753 513.202C124.028 513.282 123.856 514.083 138.521 515.78C142.929 516.291 145.88 515.015 150.608 516.723C152.165 517.285 152.932 515.832 158.039 517.601C159.29 518.034 170.772 519.367 171.885 519.496C176.334 520.013 179.219 518.721 183.972 520.434C186.553 521.363 186.746 520.102 190.473 521.3C191.494 521.628 204.06 523.075 205.246 523.212C209.76 523.732 212.517 522.404 217.332 524.146C217.826 524.323 217.933 523.196 223.829 525.022C225.364 525.498 234.848 526.15 235.809 526.216C239.546 526.473 239.39 527.046 243.211 527.085C255.47 527.211 265.337 530.629 275.649 530.786C284.934 530.928 286.665 533.174 287.665 529.153C290.884 516.209 288.875 515.845 287.808 515.731C287.583 515.706 271.925 511.863 269.137 511.804C256.445 511.531 256.871 508.626 244.097 508.089C243.036 508.044 243.305 506.756 231.133 505.217C226.121 504.584 212.365 501.867 210.738 501.545C209.04 501.21 208.978 501.649 189.426 497.811C181.911 496.335 178.818 496.834 171.848 494.858C165.642 493.1 157.835 492.91 155.156 492.107C143.795 488.701 143.421 490.797 131.956 487.743C122.274 485.163 106.004 485.95 112.688 481.212C118.133 477.353 119.656 475.21 119.848 475.167C123.257 474.411 122.113 472.796 123.789 471.959C124.454 471.627 124.82 471.444 131.246 466.412C136.825 462.043 137.022 462.183 137.332 461.317C137.475 460.92 137.854 461.432 141.347 457.89C145.339 453.841 160.816 460.871 169.098 462.246C173.373 462.956 173.146 463.788 177.439 464.039C180.725 464.231 182.1 467.096 191.339 467.783C197.753 468.26 197.151 470.951 206.171 471.461C208.31 471.582 214.19 475.03 218.203 475.168C220.484 475.248 250.94 483.92 254.359 484.488C258.634 485.198 258.408 486.03 262.701 486.281C265.986 486.473 267.362 489.339 276.601 490.025C277.932 490.124 280.858 491 281.223 491.108C284.616 492.124 284.339 492.759 287.745 493.613C289.209 493.981 289.56 493.016 293.199 494.266C296.398 495.366 295.676 485.904 303.084 470.612C305.011 466.634 304.014 466.223 306.487 462.587C306.955 461.9 306.829 461.899 311.135 453.293C315.427 444.715 308.506 446.424 304.648 442.668C302.66 440.731 298.878 440.064 289.249 433.224C289.183 433.179 264.14 418.371 261.903 416.755C261.85 416.716 246.046 407.585 243.371 405.631C242.432 404.945 181.655 369.345 181.14 367.891C180.853 367.071 179.106 349.572 178.239 347.549C176.704 343.961 180.091 343.494 176.28 325.282C175.332 320.746 189.83 333.391 194.248 336.128C200.1 339.755 199.379 340.955 202.508 341.759C203.189 341.934 202.8 342.544 209.689 346.832C210.562 347.374 210.082 347.811 210.981 348.231C215.52 350.354 214.77 351.433 219.192 353.907C219.513 354.086 219.352 354.212 222.968 356.517C223.975 356.928 223.92 356.907 224.762 357.604C225.168 358.021 226.157 359.697 228.455 360.306C229.714 360.638 229.006 361.622 233.172 363.901C235.791 365.335 235.333 365.836 237.811 367.574C239.621 367.843 239.547 368.022 240.692 369.516C241.904 370.709 242.32 370.115 258.014 381.835C271.358 391.798 275.849 393.905 277.777 396.372C278.141 396.837 278.285 396.537 283.811 400.608C284.323 400.987 284.503 400.697 290.487 404.941C291.467 405.637 291.498 405.548 291.569 405.621C292.066 406.135 291.839 406.303 292.559 406.626C292.585 406.642 294.018 408.202 294.368 408.314C298.609 409.677 303.62 415.524 315.328 422.845C318.228 424.658 324.231 431.672 326.313 427.96C331.463 418.777 336.3 418.354 331.858 414.643C328.467 411.809 314.307 400.911 312.34 398.917C311.629 398.197 307.208 394.67 306.756 394.309C284.416 376.486 279.033 372.51 276.565 370.688C274.679 369.296 275.04 368.993 273.032 367.637C272.401 367.211 201.563 310.227 200.332 309.716C198.962 309.149 199.387 308.468 197.911 308.143C197.371 308.023 197.804 307.584 192.837 303.447C189.298 300.5 184.606 297.108 183.872 296.578C182.883 295.862 182.853 295.974 182.784 295.898C182.291 295.362 182.515 295.185 181.798 294.887C181.304 294.681 178.13 291.222 178.065 289.161C177.643 275.693 178.553 275.712 177.267 262.27C177.015 259.633 177.517 253.474 176.489 249.276C174.923 242.875 177.766 242.53 175.504 236.32C174.333 233.107 176.773 230.687 174.521 222.417C173.75 219.585 186.573 221.195 187.615 221.325C213.609 224.587 221.475 222.229 224.69 223.268C229.049 224.674 245.855 223.85 247.509 226.394C249.587 229.588 249.252 229.962 250.807 230.526C251.245 230.685 253.732 235.102 258.664 240.285C261.5 243.267 264.195 247.576 264.618 248.252C265.39 249.488 266.193 248.779 266.557 250.125C266.742 250.811 279.758 267.339 280.486 267.559C281.627 267.903 281.801 270.446 282.576 271.1C283.418 271.808 283.656 271.401 284.26 272.27C288.477 278.327 368.772 378.365 369.344 378.913C369.886 382.516 371.245 379.991 371.734 379.512C381.969 371.783 382.269 371.773 382.188 370.682C381.792 365.389 379.669 366.337 377.281 361.6C376.81 360.664 375.962 361.297 369.495 351.071C364.813 343.668 364.233 344.126 359.687 336.568C359.508 336.272 357.017 333.268 356.779 332.982C356.438 332.57 356.986 332.26 353.082 327.412C351.197 325.071 352.024 324.452 349.562 322.747C349.421 322.65 336.221 302.932 328.206 292.079C326.436 289.683 326.857 289.516 325.024 287.102C323.71 285.371 323.006 285.836 322.581 283.734C322.448 283.073 321.807 283.478 317.599 276.928C315.123 273.075 309.601 265.399 307.42 262.085C305.687 259.452 305.11 259.87 304.033 256.888C303.816 256.289 302.757 257.013 299.43 250.392C298.35 248.245 297.119 249.063 296.633 246.663C296.498 246.001 295.86 246.406 291.651 239.856C281.477 224.024 277.075 221.196 280.325 220.981C281.068 220.932 280.916 221.632 289.561 222.238C293.287 222.5 293.14 223.05 296.965 223.106C307.041 223.256 312.237 224.671 319.236 225.746C320.566 225.951 322.819 224.029 326.328 230.894C327.975 234.116 329.077 233.519 329.72 237.093C329.883 238 333.142 241.709 333.325 242.721C333.412 243.204 333.732 244.962 336.316 248.078C336.657 248.49 336.158 248.706 339.865 253.752C339.949 253.875 345.383 264.358 346.506 265.679C347.372 266.699 356.542 282.827 357.481 284.34C361.496 290.801 361.562 290.696 362.15 291.753C363.318 293.852 362.679 294.182 364.307 295.894C364.392 295.995 370.299 305.584 370.433 306.663C370.525 307.416 371.123 307.127 375.119 314.905C376.388 317.376 377.091 316.941 377.923 319.557C378.699 321.995 380.072 321.264 381.644 326.036C382.39 328.301 383.689 327.56 385.374 332.511C385.599 333.171 386.308 332.753 389.926 339.941C391.188 342.449 392.247 341.861 392.739 344.597C392.959 345.823 394.679 347.567 394.896 347.787C396.747 349.665 395.642 350.36 398.643 354.162C400.773 356.863 400.022 361.066 403.804 358.065C404.628 357.41 404.805 357.75 415.707 352.435C419.375 350.646 419.015 349.947 422.938 349.103C427.834 348.048 427.323 346.824 432.207 345.399C433.263 345.092 433.06 344.674 445.239 341.034C452.219 338.948 445.291 335.146 444.998 326.221C444.814 320.591 441.483 317.659 441.291 311.393C441.119 305.746 437.762 302.842 437.585 296.563C437.425 290.863 434.036 288.03 433.878 281.735C433.718 275.288 430.363 274.59 430.149 265.987C430.038 261.512 426.613 259.272 426.443 251.159C426.351 246.741 422.909 244.382 422.739 236.33C422.693 234.158 419.12 225.224 419.061 224.296C418.609 217.086 417.528 217.369 415.489 210.391C415.22 209.466 416.052 207.253 413.507 200.211C413.13 199.167 409.423 188.909 412.899 186.356C413.524 185.897 414.69 186.333 415.339 183.382C415.522 182.548 416.374 183.167 422.329 175.306C433.547 160.498 434.677 161.323 435.939 158.438C437.279 155.374 439.236 155.143 440.002 158.404C440.915 162.295 442.184 175.7 444.349 182.539C444.759 183.837 443.932 187.731 446.176 195.524C446.812 197.732 445.851 197.899 448.065 204.778C448.477 206.058 447.136 206.238 450.186 221.441C450.54 223.208 451.647 226.572 451.792 227.013C452.421 228.922 450.967 231.684 453.591 240.936C453.845 241.832 454.174 246.1 455.475 250.191C455.893 251.507 454.889 256.88 458.234 267.808C459.514 271.991 458.671 279.466 461.913 290.06C463.037 293.733 463.086 299.417 463.094 300.236C463.148 306.443 466.64 312.604 466.79 322.48C466.876 328.155 468.326 327.877 468.61 333.575C468.736 336.066 484.687 332.73 484.909 332.506C485.96 331.449 482.661 311.427 482.257 310.465C482.084 310.053 482.282 297.03 480.459 290.056C479.836 287.675 480.956 287.553 479.5 283.579C478.791 281.643 480.247 281.172 478.536 277.105C478.395 276.766 478.549 263.591 476.757 256.691C476.574 255.991 475.859 246.189 474.836 243.74C474.694 243.4 474.829 230.207 473.049 223.328C472.114 219.715 471.857 213.128 471.821 212.236C471.761 210.686 470.973 210.965 470.934 209.461C470.881 207.448 470.42 189.896 468.356 184.424C467.599 182.418 469.183 182.128 467.383 177.955C466.793 176.591 468.571 176.45 466.192 159.421C463.51 140.233 462.644 140.288 463.566 134.317C463.616 133.991 463.647 133.796 465.921 130.936C466.353 130.394 466.702 130.917 467.034 130.286C467.435 129.525 467.039 129.456 467.404 128.753C467.453 128.659 467.469 128.678 468.275 127.741C469.113 127.081 469.043 127.095 470.056 126.696C471.922 124.81 471.5 124.482 473.712 122.935C475.656 121.576 474.406 120.468 476.556 119.271C477.378 118.813 476.833 118.27 484.46 110.56C485.05 109.963 484.781 109.733 491.484 102.765C495.384 98.7102 494.941 98.4339 498.899 94.4238C499.119 94.2012 499.85 93.4605 501.387 91.4102C501.884 90.4687 501.886 90.5146 502.685 89.8604L502.978 89.6602C503.815 89.0664 505.724 87.5024 508.836 83.0811C509.053 82.7715 508.966 82.3094 509.184 82H512.891Z" fill="#E5A362" fill-opacity="0.99"/>
<defs>
<linearGradient id="paint0_linear_35_879" x1="512" y1="0" x2="512" y2="1024" gradientUnits="userSpaceOnUse">
<stop stop-color="white"/>
<stop offset="0.735577" stop-color="#E6D6B8"/>
<stop offset="1" stop-color="#CEAF73"/>
</linearGradient>
</defs>
</svg>
